{"title":"Scooby-Doo.And.Kiss.Rock.and.Roll.Mystery.2015.BRRip.480p-VYTO","uid":12217508,"size":295746585,"categoryP":"video","categoryS":"movies","magnet":"?xt=urn:btih:5a3d6263b5e5cdc1bd9d0804cc350e4bb029f52a&amp;dn=Scooby-Doo.And.Kiss.Rock.and.Roll.Mystery.2015.BRRip.480p-VYTO&amp;tr=udp%3A%2F%2Ftracker.openbittorrent.com%3A80&amp;tr=udp%3A%2F%2Fopen.demonii.com%3A1337&amp;tr=udp%3A%2F%2Ftracker.coppersurfer.tk%3A6969&amp;tr=udp%3A%2F%2Fexodus.desync.com%3A6969","seeders":2,"leechers":0,"uploader":"ValidusVyto","files":7,"time":1439268474,"description":"____    ____ ____    ____ .___________.  ______   \n     /   /      /   / |           | /  __    \n    /   /      /   /  `---|  |----`|  |  |  | \n        /     _    _/       |  |     |  |  |  | \n       /        |  |         |  |     |  `--'  | \n    __/         |__|         |__|      ______/  \n                                                  \nPresenting Small Encodes with quality for years!\n                                                                                                   \n                                                                                                   \n\nScooby-Doo.And.Kiss.Rock.and.Roll.Mystery.2015.BRRip.480p.x264.AAC-VYTO\n\n\nGenre: Animation, Family &lt;a href=&quot;\nhttp://www.imdb.com/title/tt4717798/&quot; rel=&quot;nofollow&quot; target=&quot;_NEW&quot;&gt;\nhttp://www.imdb.com/title/tt4717798/&lt;/a&gt;\n\n\nGeneral\nFormat                         : MPEG-\nFile size                      : 276 MiB\nDuration                       : 1h 18mn\nOverall bit rate               : 490 Kbps\n\nVideo\nFormat                         : AVC\nBit rate                       : 455 Kbps\nWidth                          : 720 pixels\nHeight                         : 400 pixels\nDisplay aspect ratio           : 16:9\nFrame rate mode                : Constant\nFrame rate                     : 23.976 fps\nBit depth                      : 8 bits\nStream size                    : 256 MiB (93%)\nWriting library                : x264 core 148 r2579\n\nAudio\nFormat                         : AAC\nBit rate mode                  : Variable\nBit rate                       : 32.0 Kbps\nChannel(s)                     : 2 channel\nChannel positions              : Front: L R\nSampling rate                  : 48.0 KHz \nStream size                    : 18.0 MiB (7%)\nLanguage                       : English\n\nSubtitle                       : Yes\nSource                     \t   : 720p.BluRay.x264-SADPANDA\t\t\t\n\nScreenshots:\n &lt;a href=&quot;\nhttp://ititli.com/ou&quot; rel=&quot;nofollow&quot; target=&quot;_NEW&quot;&gt;\nhttp://ititli.com/ou&lt;/a&gt; &lt;a href=&quot;\nhttp://ititli.com/ov&quot; rel=&quot;nofollow&quot; target=&quot;_NEW&quot;&gt;\nhttp://ititli.com/ov&lt;/a&gt; &lt;a href=&quot;\nhttp://ititli.com/oR&quot; rel=&quot;nofollow&quot; target=&quot;_NEW&quot;&gt;\nhttp://ititli.com/oR&lt;/a&gt; &lt;a href=&quot;\nhttp://ititli.com/oy&quot; rel=&quot;nofollow&quot; target=&quot;_NEW&quot;&gt;\nhttp://ititli.com/oy&lt;/a&gt; &lt;a href=&quot;\nhttp://ititli.com/o3&quot; rel=&quot;nofollow&quot; target=&quot;_NEW&quot;&gt;\nhttp://ititli.com/o3&lt;/a&gt; &lt;a href=&quot;\nhttp://ititli.com/oE&quot; rel=&quot;nofollow&quot; target=&quot;_NEW&quot;&gt;\nhttp://ititli.com/oE&lt;/a&gt; &lt;a href=&quot;\nhttp://ititli.com/oQ&quot; rel=&quot;nofollow&quot; target=&quot;_NEW&quot;&gt;\nhttp://ititli.com/oQ&lt;/a&gt; &lt;a href=&quot;\nhttp://ititli.com/oS&quot; rel=&quot;nofollow&quot; target=&quot;_NEW&quot;&gt;\nhttp://ititli.com/oS&lt;/a&gt; &lt;a href=&quot;\nhttp://ititli.com/oZ&quot; rel=&quot;nofollow&quot; target=&quot;_NEW&quot;&gt;\nhttp://ititli.com/oZ&lt;/a&gt; &lt;a href=&quot;\nhttp://ititli.com/oc&quot; rel=&quot;nofollow&quot; target=&quot;_NEW&quot;&gt;\nhttp://ititli.com/oc&lt;/a&gt; &lt;a href=&quot;\nhttp://ititli.com/oi&quot; rel=&quot;nofollow&quot; target=&quot;_NEW&quot;&gt;\nhttp://ititli.com/oi&lt;/a&gt; &lt;a href=&quot;\nhttp://ititli.com/op&quot; rel=&quot;nofollow&quot; target=&quot;_NEW&quot;&gt;\nhttp://ititli.com/op&lt;/a&gt;\n\n----------------------------------------------------------------------------------------------------\n\n\nEncoder Notes: Looking For Early Access To Anything You Can Provide DVDScr, R5, DVDR, BluRay, Direct\nAudio, Music Releases and Seedboxes. If You Got anything to offer please contact us.\n\nSupport us by donating BC - 1FgwdzPsd1y25Gea8wP1qni35uGCtmkRCD","torrent":{"xt":"urn:btih:5a3d6263b5e5cdc1bd9d0804cc350e4bb029f52a","amp;dn":"Scooby-Doo.And.Kiss.Rock.and.Roll.Mystery.2015.BRRip.480p-VYTO","amp;tr":["udp%3A%2F%2Ftracker.openbittorrent.com%3A80","udp%3A%2F%2Fopen.demonii.com%3A1337","udp%3A%2F%2Ftracker.coppersurfer.tk%3A6969","udp%3A%2F%2Fexodus.desync.com%3A6969"],"infoHash":"5a3d6263b5e5cdc1bd9d0804cc350e4bb029f52a","infoHashBuffer":{"type":"Buffer","data":[90,61,98,99,181,229,205,193,189,157,8,4,204,53,14,75,176,41,245,42]},"announce":[],"urlList":[]}}